<?xml version="1.0" encoding="UTF-8" standalone="no"?>
<!-- Created with Inkscape (http://www.inkscape.org/) -->

<svg
   xmlns:ns2="http://ns.adobe.com/AdobeIllustrator/10.0/"
   xmlns:dc="http://purl.org/dc/elements/1.1/"
   xmlns:cc="http://creativecommons.org/ns#"
   xmlns:rdf="http://www.w3.org/1999/02/22-rdf-syntax-ns#"
   xmlns:svg="http://www.w3.org/2000/svg"
   xmlns="http://www.w3.org/2000/svg"
   xmlns:sodipodi="http://sodipodi.sourceforge.net/DTD/sodipodi-0.dtd"
   xmlns:inkscape="http://www.inkscape.org/namespaces/inkscape"
   width="640"
   height="480"
   id="svg3320"
   version="1.1"
   inkscape:version="0.92.4 (5da689c313, 2019-01-14)"
   sodipodi:docname="splash.svg">
  <defs
     id="defs3322">
    <linearGradient
       id="linearGradient5012">
      <stop
         id="stop5014"
         offset="0"
         style="stop-color:#fdf188;stop-opacity:1;" />
      <stop
         id="stop5016"
         offset="1"
         style="stop-color:#d3bc00;stop-opacity:1;" />
    </linearGradient>
    <linearGradient
       id="linearGradient8543">
      <stop
         id="stop8545"
         offset="0"
         style="stop-color:#fffef5;stop-opacity:0.94117647;" />
      <stop
         id="stop8547"
         offset="1"
         style="stop-color:#fce94f;stop-opacity:0;" />
    </linearGradient>
    <linearGradient
       id="linearGradient11202">
      <stop
         id="stop11204"
         offset="0"
         style="stop-color:#c4a000;stop-opacity:1;" />
      <stop
         id="stop11206"
         offset="1"
         style="stop-color:#c4a000;stop-opacity:0;" />
    </linearGradient>
    <linearGradient
       id="linearGradient18284">
      <stop
         id="stop18286"
         offset="0"
         style="stop-color:#000000;stop-opacity:1;" />
      <stop
         style="stop-color:#000000;stop-opacity:1;"
         offset="0.5"
         id="stop20913" />
      <stop
         style="stop-color:#000000;stop-opacity:0;"
         offset="1"
         id="stop19165" />
    </linearGradient>
    <inkscape:perspective
       id="perspective47"
       inkscape:persp3d-origin="24 : 16 : 1"
       inkscape:vp_z="48 : 24 : 1"
       inkscape:vp_y="0 : 1000 : 0"
       inkscape:vp_x="0 : 24 : 1"
       sodipodi:type="inkscape:persp3d" />
  </defs>
  <sodipodi:namedview
     id="base"
     pagecolor="#ffffff"
     bordercolor="#666666"
     borderopacity="1.0"
     inkscape:pageopacity="0.0"
     inkscape:pageshadow="2"
     inkscape:zoom="0.775"
     inkscape:cx="574.36733"
     inkscape:cy="250.84337"
     inkscape:document-units="px"
     inkscape:current-layer="layer1"
     showgrid="false"
     inkscape:window-width="3840"
     inkscape:window-height="1518"
     inkscape:window-x="0"
     inkscape:window-y="26"
     inkscape:window-maximized="1" />
  <metadata
     id="metadata3325">
    <rdf:RDF>
      <cc:Work
         rdf:about="">
        <dc:format>image/svg+xml</dc:format>
        <dc:type
           rdf:resource="http://purl.org/dc/dcmitype/StillImage" />
        <dc:title />
      </cc:Work>
    </rdf:RDF>
  </metadata>
  <g
     inkscape:label="Layer 1"
     inkscape:groupmode="layer"
     id="layer1"
     transform="translate(0,-572.3622)">
    <rect
       style="fill:#000000;fill-opacity:1;stroke:none"
       id="rect3328"
       width="640"
       height="480"
       x="0"
       y="572.36218" />
    <text
       transform="scale(1.0238633,0.97669286)"
       id="text3002"
       y="616.50177"
       x="193.79889"
       style="font-style:normal;font-variant:normal;font-weight:bold;font-stretch:normal;font-size:7.86575317px;line-height:0%;font-family:'DejaVu Sans';-inkscape-font-specification:'DejaVu Sans Bold';text-align:start;letter-spacing:0px;word-spacing:0px;writing-mode:lr-tb;text-anchor:start;fill:#ffffff;fill-opacity:1;stroke:none;stroke-width:0.65547943"
       xml:space="preserve"><tspan
         y="616.50177"
         x="193.79889"
         sodipodi:role="line"
         style="font-style:normal;font-weight:bold;font-size:13.1095686px;line-height:1;-inkscape-font-specification:'DejaVu Sans Bold';stroke-width:0.65547943"
         id="tspan3045">@PROJECT@ @VERSION@ (@DISTRIBUTION@)</tspan><tspan
         y="629.61133"
         x="193.79889"
         sodipodi:role="line"
         style="font-style:normal;font-weight:bold;font-size:13.1095686px;line-height:1;-inkscape-font-specification:'DejaVu Sans Bold';stroke-width:0.65547943"
         id="tspan3041">@ARCHITECTURE@</tspan><tspan
         y="642.72089"
         x="193.79889"
         sodipodi:role="line"
         style="font-style:normal;font-weight:bold;font-size:13.1095686px;line-height:1;-inkscape-font-specification:'DejaVu Sans Bold';stroke-width:0.65547943"
         id="tspan3037"> OpenStack Cluster Installer (OCI) live image</tspan><tspan
         y="655.83051"
         x="193.79889"
         sodipodi:role="line"
         style="font-style:normal;font-weight:bold;font-size:13.1095686px;line-height:1;-inkscape-font-specification:'DejaVu Sans Bold';stroke-width:0.65547943"
         id="tspan3039">Build: @YEAR@-@MONTH@-@DAY@ @HOUR@:@MINUTE@:@SECOND@</tspan><tspan
         y="668.94006"
         x="193.79889"
         sodipodi:role="line"
         style="font-style:normal;font-weight:bold;font-size:13.1095686px;line-height:1;-inkscape-font-specification:'DejaVu Sans Bold';stroke-width:0.65547943"
         id="tspan3098"> </tspan><tspan
         y="682.04962"
         x="193.79889"
         sodipodi:role="line"
         style="font-style:normal;font-weight:normal;font-size:13.1095686px;line-height:1;-inkscape-font-specification:'DejaVu Sans';stroke-width:0.65547943"
         id="tspan3102">linux: @LINUX_VERSIONS@</tspan><tspan
         y="695.15918"
         x="193.79889"
         sodipodi:role="line"
         style="font-style:normal;font-weight:normal;font-size:13.1095686px;line-height:1;-inkscape-font-specification:'DejaVu Sans';stroke-width:0.65547943"
         id="tspan3076">live-build: @LIVE_BUILD_VERSION@</tspan><tspan
         y="708.26874"
         x="193.79889"
         sodipodi:role="line"
         style="font-style:normal;font-weight:normal;font-size:13.1095686px;line-height:1;-inkscape-font-specification:'DejaVu Sans';stroke-width:0.65547943"
         id="tspan3068">live-boot: @LIVE_BOOT_VERSION@</tspan><tspan
         y="721.3783"
         x="193.79889"
         sodipodi:role="line"
         style="font-style:normal;font-weight:normal;font-size:13.1095686px;line-height:1;-inkscape-font-specification:'DejaVu Sans';stroke-width:0.65547943"
         id="tspan3070">live-config: @LIVE_CONFIG_VERSION@</tspan><tspan
         y="734.48792"
         x="193.79889"
         sodipodi:role="line"
         style="font-style:normal;font-weight:normal;font-size:13.1095686px;line-height:1;-inkscape-font-specification:'DejaVu Sans';stroke-width:0.65547943"
         id="tspan3012">live-tools: @LIVE_TOOLS_VERSION@</tspan><tspan
         y="747.59747"
         x="193.79889"
         sodipodi:role="line"
         style="font-style:normal;font-weight:normal;font-size:13.1095686px;line-height:1;-inkscape-font-specification:'DejaVu Sans';stroke-width:0.65547943"
         id="tspan3066"> </tspan></text>
    <text
       xml:space="preserve"
       style="font-style:normal;font-weight:normal;line-height:0%;font-family:sans-serif;letter-spacing:0px;word-spacing:0px;fill:#000000;fill-opacity:1;stroke:none"
       x="200"
       y="336.7742"
       id="text3114"
       transform="translate(0,572.3622)"><tspan
         sodipodi:role="line"
         id="tspan3116"
         x="200"
         y="336.7742"
         style="font-size:40px;line-height:1.25;font-family:sans-serif"> </tspan></text>
    <g
       id="g12"
       transform="matrix(0.13333333,0,0,-0.13333333,223.8236,769.92376)">
      <path
         d="M 0,5.85938 V 265.137 H 99.3672 V 5.85938 H 0 M 0,363.77 H 99.3672 V 296.145 H 0 v 67.625"
         style="fill:#439bdb;fill-opacity:1;fill-rule:nonzero;stroke:none"
         id="path14"
         inkscape:connector-curvature="0" />
      <path
         d="m 135.344,265.137 h 92.527 v -42.235 c 13.832,17.25 27.832,29.578 41.992,36.985 14.16,7.402 31.41,11.109 51.758,11.109 27.504,0 49.027,-8.18 64.574,-24.535 15.543,-16.359 23.317,-41.625 23.317,-75.805 V 5.85938 H 309.656 V 148.438 c 0,16.273 -3.011,27.789 -9.031,34.546 -6.023,6.754 -14.488,10.129 -25.391,10.129 -12.046,0 -21.812,-4.558 -29.296,-13.668 -7.489,-9.117 -11.231,-25.476 -11.231,-49.074 V 5.85938 H 135.344 V 265.137"
         style="fill:#439bdb;fill-opacity:1;fill-rule:nonzero;stroke:none"
         id="path16"
         inkscape:connector-curvature="0" />
      <path
         d="m 559.434,265.137 h 47.363 V 192.383 H 559.434 V 5.85938 h -99.61 V 192.383 h -37.109 v 72.754 h 37.109 v 11.718 c 0,10.579 1.137,22.219 3.418,34.915 2.278,12.695 6.547,23.07 12.817,31.125 6.265,8.058 15.054,14.566 26.367,19.531 11.308,4.961 27.871,7.449 49.683,7.449 17.414,0 42.727,-2.039 75.926,-6.105 l -10.984,-60.059 c -11.883,1.953 -21.485,2.93 -28.809,2.93 -8.957,0 -15.379,-1.508 -19.289,-4.516 -3.902,-3.012 -6.672,-7.773 -8.297,-14.281 -0.816,-3.586 -1.222,-11.153 -1.222,-22.707"
         style="fill:#439bdb;fill-opacity:1;fill-rule:nonzero;stroke:none"
         id="path18"
         inkscape:connector-curvature="0" />
      <path
         d="m 702.277,135.012 c 0,-23.117 4.676,-40.2073 14.036,-51.2737 9.355,-11.0703 21.121,-16.5977 35.281,-16.5977 14.32,0 26.078,5.4492 35.277,16.3555 9.195,10.8984 13.793,28.3989 13.793,52.4919 0,22.461 -4.637,39.184 -13.918,50.168 -9.273,10.989 -20.75,16.481 -34.422,16.481 -14.488,0 -26.449,-5.574 -35.886,-16.723 -9.446,-11.152 -14.161,-28.121 -14.161,-50.902 z m -99.609,-0.246 c 0,39.55 13.344,72.144 40.035,97.777 26.692,25.637 62.746,38.453 108.156,38.453 51.918,0 91.145,-15.058 117.676,-45.168 21.32,-24.25 31.985,-54.117 31.985,-89.598 0,-39.8823 -13.231,-72.5464 -39.676,-98.0269 C 834.395,12.7344 797.813,0 751.105,0 709.434,0 675.742,10.5742 650.031,31.7383 618.453,57.9414 602.668,92.2852 602.668,134.766"
         style="fill:#439bdb;fill-opacity:1;fill-rule:nonzero;stroke:none"
         id="path20"
         inkscape:connector-curvature="0" />
      <path
         d="m 919.102,265.137 h 92.778 v -37.84 c 13.36,15.785 26.85,27.016 40.46,33.691 13.61,6.668 30.03,10.008 49.27,10.008 20.69,0 37.08,-3.66 49.14,-10.984 12.06,-7.324 21.92,-18.235 29.58,-32.715 15.6,16.922 29.83,28.441 42.67,34.543 12.84,6.105 28.68,9.156 47.54,9.156 27.8,0 49.49,-8.262 65.1,-24.781 15.6,-16.524 23.4,-42.356 23.4,-77.516 V 5.85938 h -99.61 V 153.566 c 0,11.715 -2.27,20.422 -6.81,26.122 -6.65,8.949 -14.92,13.425 -24.81,13.425 -11.69,0 -21.09,-4.23 -28.23,-12.691 -7.14,-8.469 -10.7,-22.059 -10.7,-40.774 V 5.85938 h -99.61 V 148.684 c 0,11.39 -0.66,19.121 -1.97,23.191 -2.12,6.508 -5.79,11.758 -11.02,15.746 -5.23,3.984 -11.35,5.984 -18.37,5.984 -11.44,0 -20.83,-4.32 -28.17,-12.941 -7.36,-8.629 -11.03,-22.789 -11.03,-42.48 V 5.85938 H 919.102 V 265.137"
         style="fill:#439bdb;fill-opacity:1;fill-rule:nonzero;stroke:none"
         id="path22"
         inkscape:connector-curvature="0" />
      <path
         d="m 1575.13,128.906 c -13.67,-4.883 -27.92,-9.199 -42.73,-12.937 -20.18,-5.371 -32.96,-10.664 -38.33,-15.871 -5.53,-5.3714 -8.3,-11.4769 -8.3,-18.3128 0,-7.8086 2.73,-14.1954 8.18,-19.168 5.45,-4.9609 13.47,-7.4414 24.05,-7.4414 11.06,0 21.36,2.6875 30.88,8.0586 9.52,5.3711 16.28,11.9219 20.27,19.6562 3.98,7.7227 5.98,17.7734 5.98,30.1444 z m -86.18,52.246 -94.98,10.008 c 3.58,16.606 8.75,29.664 15.51,39.188 6.75,9.519 16.48,17.777 29.17,24.781 9.11,5.043 21.65,8.949 37.6,11.719 15.95,2.761 33.2,4.148 51.76,4.148 29.78,0 53.71,-1.672 71.78,-5.004 18.06,-3.34 33.12,-10.297 45.16,-20.875 8.46,-7.324 15.14,-17.699 20.02,-31.129 4.88,-13.425 7.33,-26.246 7.33,-38.453 V 61.0352 c 0,-12.2071 0.77,-21.7657 2.31,-28.6914 1.55,-6.9141 4.93,-15.7422 10.14,-26.48442 h -93.27 c -3.74,6.67192 -6.18,11.75782 -7.32,15.25392 -1.14,3.5039 -2.28,8.9961 -3.42,16.4844 C 1567.72,25.0586 1554.78,16.1133 1541.92,10.7422 1524.35,3.58594 1503.92,0 1480.64,0 c -30.92,0 -54.4,7.15625 -70.43,21.4844 -16.03,14.3164 -24.05,31.9844 -24.05,52.9804 0,19.6875 5.78,35.8872 17.34,48.5822 11.55,12.695 32.87,22.133 63.96,28.32 37.27,7.485 61.44,12.735 72.51,15.746 11.07,3.008 22.78,6.961 35.16,11.84 0,12.207 -2.53,20.754 -7.57,25.637 -5.05,4.883 -13.92,7.324 -26.61,7.324 -16.28,0 -28.49,-2.605 -36.62,-7.812 -6.35,-4.071 -11.48,-11.719 -15.38,-22.95"
         style="fill:#439bdb;fill-opacity:1;fill-rule:nonzero;stroke:none"
         id="path24"
         inkscape:connector-curvature="0" />
      <path
         d="m 1711.87,265.137 h 92.52 v -42.235 c 13.84,17.25 27.84,29.578 42,36.985 14.16,7.402 31.41,11.109 51.75,11.109 27.51,0 49.04,-8.18 64.58,-24.535 15.54,-16.359 23.32,-41.625 23.32,-75.805 V 5.85938 h -99.86 V 148.438 c 0,16.273 -3.01,27.789 -9.03,34.546 -6.03,6.754 -14.49,10.129 -25.39,10.129 -12.05,0 -21.81,-4.558 -29.3,-13.668 -7.49,-9.117 -11.23,-25.476 -11.23,-49.074 V 5.85938 h -99.36 V 265.137"
         style="fill:#439bdb;fill-opacity:1;fill-rule:nonzero;stroke:none"
         id="path26"
         inkscape:connector-curvature="0" />
      <path
         d="m 2019.79,265.137 h 99.37 V 5.85938 h -99.37 z m 0,98.633 h 99.37 v -67.625 h -99.37 v 67.625"
         style="fill:#439bdb;fill-opacity:1;fill-rule:nonzero;stroke:none"
         id="path28"
         inkscape:connector-curvature="0" />
      <path
         d="m 2337.92,130.371 c -13.67,-4.883 -27.92,-9.199 -42.72,-12.937 -20.18,-5.371 -32.96,-10.664 -38.33,-15.871 -5.54,-5.3716 -8.3,-11.4732 -8.3,-18.3091 0,-7.8125 2.72,-14.1992 8.17,-19.1719 5.46,-4.9609 13.47,-7.4414 24.05,-7.4414 11.08,0 21.37,2.6836 30.9,8.0586 9.51,5.3711 16.26,11.9219 20.25,19.6563 4,7.7226 5.98,17.7735 5.98,30.1485 z m -86.18,52.246 -94.96,10.012 c 3.56,16.601 8.75,29.66 15.5,39.184 6.75,9.519 16.47,17.777 29.17,24.781 9.12,5.043 21.64,8.949 37.59,11.719 15.95,2.761 33.21,4.148 51.76,4.148 29.79,0 53.72,-1.668 71.78,-5.004 18.07,-3.34 33.12,-10.301 45.16,-20.875 8.46,-7.324 15.14,-17.699 20.03,-31.129 4.89,-13.426 7.32,-26.242 7.32,-38.449 V 62.5 c 0,-12.207 0.78,-21.7656 2.31,-28.6914 1.56,-6.9141 4.92,-15.7422 10.14,-26.48438 h -93.26 c -3.75,6.66798 -6.19,11.75778 -7.33,15.25388 -1.13,3.5078 -2.28,8.9961 -3.41,16.4844 -13.02,-12.5391 -25.96,-21.4844 -38.82,-26.8555 -17.57,-7.15622 -38.01,-10.74216 -61.27,-10.74216 -30.93,0 -54.42,7.15625 -70.43,21.48436 -16.04,14.3164 -24.06,31.9844 -24.06,52.9805 0,19.6836 5.78,35.8863 17.33,48.5823 11.55,12.695 32.87,22.133 63.96,28.32 37.28,7.484 61.45,12.734 72.52,15.746 11.06,3.008 22.78,6.957 35.15,11.844 0,12.207 -2.52,20.75 -7.56,25.633 -5.05,4.883 -13.91,7.324 -26.62,7.324 -16.28,0 -28.49,-2.606 -36.62,-7.813 -6.34,-4.074 -11.47,-11.718 -15.38,-22.949"
         style="fill:#439bdb;fill-opacity:1;fill-rule:nonzero;stroke:none"
         id="path30"
         inkscape:connector-curvature="0" />
      <path
         d="m 2474.66,365.234 h 101.57 V 180.488 l 74.22,86.114 h 122.3 L 2679.74,175.777 2778.13,7.32422 H 2666.17 L 2613.65,111.262 2576.23,74.707 V 7.32422 H 2474.66 V 365.234"
         style="fill:#439bdb;fill-opacity:1;fill-rule:nonzero;stroke:none"
         id="path32"
         inkscape:connector-curvature="0" />
    </g>
    <g
       transform="translate(4.2614942,941.36351)"
       id="Layer_1"
       ns2:layer="yes"
       ns2:dimmedPercent="50"
       ns2:rgbTrio="#4F008000FFFF">
      <g
         id="g4585">
        <path
           style="fill:#a80030"
           inkscape:connector-curvature="0"
           ns2:knockout="Off"
           d="m 51.986,57.297 c -1.797,0.025 0.34,0.926 2.686,1.287 0.648,-0.506 1.236,-1.018 1.76,-1.516 -1.461,0.358 -2.948,0.366 -4.446,0.229"
           id="path4561" />
        <path
           style="fill:#a80030"
           inkscape:connector-curvature="0"
           ns2:knockout="Off"
           d="m 61.631,54.893 c 1.07,-1.477 1.85,-3.094 2.125,-4.766 -0.24,1.192 -0.887,2.221 -1.496,3.307 -3.359,2.115 -0.316,-1.256 -0.002,-2.537 -3.612,4.546 -0.496,2.726 -0.627,3.996"
           id="path4563" />
        <path
           style="fill:#a80030"
           inkscape:connector-curvature="0"
           ns2:knockout="Off"
           d="m 65.191,45.629 c 0.217,-3.236 -0.637,-2.213 -0.924,-0.978 0.335,0.174 0.6,2.281 0.924,0.978"
           id="path4565" />
        <path
           style="fill:#a80030"
           inkscape:connector-curvature="0"
           ns2:knockout="Off"
           d="m 45.172,1.399 c 0.959,0.172 2.072,0.304 1.916,0.533 1.049,-0.23 1.287,-0.442 -1.916,-0.533"
           id="path4567" />
        <path
           style="fill:#a80030"
           inkscape:connector-curvature="0"
           ns2:knockout="Off"
           d="M 47.088,1.932 46.41,2.072 47.041,2.016 47.088,1.932"
           id="path4569" />
        <path
           style="fill:#a80030"
           inkscape:connector-curvature="0"
           ns2:knockout="Off"
           d="m 76.992,46.856 c 0.107,2.906 -0.85,4.316 -1.713,6.812 l -1.553,0.776 c -1.271,2.468 0.123,1.567 -0.787,3.53 -1.984,1.764 -6.021,5.52 -7.313,5.863 -0.943,-0.021 0.639,-1.113 0.846,-1.541 -2.656,1.824 -2.131,2.738 -6.193,3.846 L 60.16,65.878 C 50.142,70.591 36.226,61.251 36.409,48.507 c -0.107,0.809 -0.304,0.607 -0.526,0.934 -0.517,-6.557 3.028,-13.143 9.007,-15.832 5.848,-2.895 12.704,-1.707 16.893,2.197 -2.301,-3.014 -6.881,-6.209 -12.309,-5.91 -5.317,0.084 -10.291,3.463 -11.951,7.131 -2.724,1.715 -3.04,6.611 -4.227,7.507 -1.597,11.737 3.004,16.808 10.787,22.773 1.225,0.826 0.345,0.951 0.511,1.58 -2.586,-1.211 -4.954,-3.039 -6.901,-5.277 1.033,1.512 2.148,2.982 3.589,4.137 -2.438,-0.826 -5.695,-5.908 -6.646,-6.115 4.203,7.525 17.052,13.197 23.78,10.383 -3.113,0.115 -7.068,0.064 -10.566,-1.229 -1.469,-0.756 -3.467,-2.322 -3.11,-2.615 9.182,3.43 18.667,2.598 26.612,-3.771 2.021,-1.574 4.229,-4.252 4.867,-4.289 -0.961,1.445 0.164,0.695 -0.574,1.971 2.014,-3.248 -0.875,-1.322 2.082,-5.609 l 1.092,1.504 c -0.406,-2.696 3.348,-5.97 2.967,-10.234 0.861,-1.304 0.961,1.403 0.047,4.403 1.268,-3.328 0.334,-3.863 0.66,-6.609 0.352,0.923 0.814,1.904 1.051,2.878 -0.826,-3.216 0.848,-5.416 1.262,-7.285 -0.408,-0.181 -1.275,1.422 -1.473,-2.377 0.029,-1.65 0.459,-0.865 0.625,-1.271 -0.324,-0.186 -1.174,-1.451 -1.691,-3.877 0.375,-0.57 1.002,1.478 1.512,1.562 -0.328,-1.929 -0.893,-3.4 -0.916,-4.88 -1.49,-3.114 -0.527,0.415 -1.736,-1.337 -1.586,-4.947 1.316,-1.148 1.512,-3.396 2.404,3.483 3.775,8.881 4.404,11.117 -0.48,-2.726 -1.256,-5.367 -2.203,-7.922 0.73,0.307 -1.176,-5.609 0.949,-1.691 C 83.519,18.706 76.074,10.902 69.225,7.24 70.063,8.007 71.121,8.97 70.741,9.121 67.335,7.093 67.934,6.935 67.446,6.078 64.671,4.949 64.489,6.169 62.651,6.08 57.421,3.306 56.413,3.601 51.6,1.863 l 0.219,1.023 c -3.465,-1.154 -4.037,0.438 -7.782,0.004 -0.228,-0.178 1.2,-0.644 2.375,-0.815 -3.35,0.442 -3.193,-0.66 -6.471,0.122 0.808,-0.567 1.662,-0.942 2.524,-1.424 -2.732,0.166 -6.522,1.59 -5.352,0.295 -4.456,1.988 -12.37,4.779 -16.811,8.943 l -0.14,-0.933 c -2.035,2.443 -8.874,7.296 -9.419,10.46 l -0.544,0.127 c -1.059,1.793 -1.744,3.825 -2.584,5.67 -1.385,2.36 -2.03,0.908 -1.833,1.278 -2.724,5.523 -4.077,10.164 -5.246,13.97 0.833,1.245 0.02,7.495 0.335,12.497 -1.368,24.704 17.338,48.69 37.785,54.228 2.997,1.072 7.454,1.031 11.245,1.141 -4.473,-1.279 -5.051,-0.678 -9.408,-2.197 -3.143,-1.48 -3.832,-3.17 -6.058,-5.102 l 0.881,1.557 c -4.366,-1.545 -2.539,-1.912 -6.091,-3.037 l 0.941,-1.229 C 28.751,98.334 26.418,96.056 25.78,94.795 l -1.548,0.061 c -1.86,-2.295 -2.851,-3.949 -2.779,-5.23 l -0.5,0.891 c -0.567,-0.973 -6.843,-8.607 -3.587,-6.83 -0.605,-0.553 -1.409,-0.9 -2.281,-2.484 l 0.663,-0.758 c -1.567,-2.016 -2.884,-4.6 -2.784,-5.461 0.836,1.129 1.416,1.34 1.99,1.533 -3.957,-9.818 -4.179,-0.541 -7.176,-9.994 L 8.412,66.472 C 7.926,65.74 7.631,64.945 7.24,64.165 l 0.276,-2.75 C 4.667,58.121 6.719,47.409 7.13,41.534 7.415,39.145 9.508,36.602 11.1,32.614 l -0.97,-0.167 c 1.854,-3.234 10.586,-12.988 14.63,-12.486 1.959,-2.461 -0.389,-0.009 -0.772,-0.629 4.303,-4.453 5.656,-3.146 8.56,-3.947 3.132,-1.859 -2.688,0.725 -1.203,-0.709 5.414,-1.383 3.837,-3.144 10.9,-3.846 0.745,0.424 -1.729,0.655 -2.35,1.205 4.511,-2.207 14.275,-1.705 20.617,1.225 7.359,3.439 15.627,13.605 15.953,23.17 l 0.371,0.1 c -0.188,3.802 0.582,8.199 -0.752,12.238 l 0.908,-1.912"
           id="path4571" />
        <path
           style="fill:#a80030"
           inkscape:connector-curvature="0"
           ns2:knockout="Off"
           d="m 32.372,59.764 -0.252,1.26 c 1.181,1.604 2.118,3.342 3.626,4.596 -1.085,-2.118 -1.891,-2.993 -3.374,-5.856"
           id="path4573" />
        <path
           style="fill:#a80030"
           inkscape:connector-curvature="0"
           ns2:knockout="Off"
           d="m 35.164,59.654 c -0.625,-0.691 -0.995,-1.523 -1.409,-2.352 0.396,1.457 1.207,2.709 1.962,3.982 l -0.553,-1.63"
           id="path4575" />
        <path
           style="fill:#a80030"
           inkscape:connector-curvature="0"
           ns2:knockout="Off"
           d="m 84.568,48.916 -0.264,0.662 c -0.484,3.438 -1.529,6.84 -3.131,9.994 1.77,-3.328 2.915,-6.968 3.395,-10.656"
           id="path4577" />
        <path
           style="fill:#a80030"
           inkscape:connector-curvature="0"
           ns2:knockout="Off"
           d="M 45.527,0.537 C 46.742,0.092 48.514,0.293 49.803,0 48.123,0.141 46.451,0.225 44.8,0.438 l 0.727,0.099"
           id="path4579" />
        <path
           style="fill:#a80030"
           inkscape:connector-curvature="0"
           ns2:knockout="Off"
           d="m 2.872,23.219 c 0.28,2.592 -1.95,3.598 0.494,1.889 1.31,-2.951 -0.512,-0.815 -0.494,-1.889"
           id="path4581" />
        <path
           style="fill:#a80030"
           inkscape:connector-curvature="0"
           ns2:knockout="Off"
           d="M 0,35.215 C 0.563,33.487 0.665,32.449 0.88,31.449 -0.676,33.438 0.164,33.862 0,35.215"
           id="path4583" />
      </g>
    </g>
  </g>
  <g
     inkscape:groupmode="layer"
     id="layer3"
     inkscape:label="Layer 2">
    <g
       transform="translate(-132.68645,19.249032)"
       class="cls-2"
       id="g4309"
       style="fill:#ed1a44;fill-opacity:0.98039216">
      <path
         inkscape:connector-curvature="0"
         class="cls-3"
         d="m 436.46,187.13 h -94.63 a 10.83,10.83 0 0 0 -10.8,10.8 v 25.45 h 26.25 v -4.16 a 5.83,5.83 0 0 1 5.84,-5.84 h 52.05 a 5.83,5.83 0 0 1 5.84,5.84 v 4.16 h 26.25 v -25.45 a 10.83,10.83 0 0 0 -10.8,-10.8 z"
         transform="translate(-162.25,-187.13)"
         id="path4301"
         style="fill:#ed1a44;fill-opacity:0.98039216" />
      <path
         inkscape:connector-curvature="0"
         class="cls-3"
         d="m 421,268.8 a 5.84,5.84 0 0 1 -5.84,5.84 h -52.04 a 5.84,5.84 0 0 1 -5.84,-5.84 v -4.16 H 331 v 25.45 a 10.83,10.83 0 0 0 10.8,10.8 h 94.63 a 10.83,10.83 0 0 0 10.8,-10.8 V 264.64 H 421 Z"
         transform="translate(-162.25,-187.13)"
         id="path4303"
         style="fill:#ed1a44;fill-opacity:0.98039216" />
      <rect
         class="cls-3"
         x="168.77"
         y="43.759998"
         width="26.25"
         height="26.25"
         id="rect4305"
         style="fill:#ed1a44;fill-opacity:0.98039216" />
      <rect
         class="cls-3"
         x="258.76001"
         y="43.759998"
         width="26.25"
         height="26.25"
         id="rect4307"
         style="fill:#ed1a44;fill-opacity:0.98039216" />
    </g>
    <path
       inkscape:connector-curvature="0"
       class="cls-1"
       d="m 189.50371,187.15693 a 2.650629,4.9292859 0 1 0 -2.65063,4.92928 2.650629,4.9292859 0 0 0 2.65063,-4.92928 z m -2.65063,3.69696 a 1.9879717,3.6969643 0 1 1 1.98797,-3.69696 1.9917583,3.7040062 0 0 1 -1.97282,3.66879 z"
       id="path4277"
       style="fill:#ffffff;stroke-width:0.51637882" />
    <path
       inkscape:connector-curvature="0"
       class="cls-1"
       d="m 187.85653,186.26966 v 0 a 0.82169495,1.5280786 0 0 0 -0.21962,-1.11261 0.95801302,1.7815848 0 0 0 -0.70053,-0.45773 h -0.96937 v 4.80254 h 0.53391 v -1.57737 h 0.33701 l 0.47333,1.57737 h 0.61343 l -0.53391,-1.80976 a 0.78382888,1.4576603 0 0 0 0.46575,-1.42244 z m -0.54149,0 a 0.37866128,0.70418369 0 0 1 -0.42031,0.70418 h -0.37866 v -1.40836 h 0.37866 c 0.27642,0 0.43167,0.23942 0.43167,0.70418 z"
       id="path4279"
       style="fill:#ffffff;stroke-width:0.51637882" />
    <path
       inkscape:connector-curvature="0"
       class="cls-1"
       d="m 31.177857,172.84792 v -0.66194 c 0,-11.60495 -4.093328,-20.02698 -9.655862,-20.02698 -5.562535,0 -9.735383,8.57696 -9.735383,20.10444 v 0.66194 c 0,11.5979 4.093329,19.94952 9.655864,19.94952 5.562534,0 9.735381,-8.4995 9.735381,-20.02698 z m -14.900322,-0.14788 v -0.4366 c 0,-7.31647 2.025838,-12.71052 5.164941,-12.71052 3.059582,0 5.244458,5.46447 5.244458,12.78094 v 0.44364 c 0,7.31647 -2.025838,12.78093 -5.164939,12.78093 -3.059584,0 -5.24446,-5.54192 -5.24446,-12.85839 z"
       id="path4281"
       style="fill:#ffffff;stroke-width:0.51637882" />
    <path
       inkscape:connector-curvature="0"
       class="cls-1"
       d="m 52.549502,172.99579 v -1.0281 c 0,-13.23162 -3.972157,-19.80869 -8.182872,-19.80869 -3.029291,0 -4.846865,3.25333 -6.16082,7.04183 v -6.28131 h -4.487136 v 50.29984 h 4.479563 v -17.06942 c 1.272302,3.47163 3.101236,6.6475 6.160819,6.6475 4.259942,0 8.190446,-6.6475 8.190446,-19.80165 z m -14.423211,-0.14787 v -0.7394 c 0,-7.68265 2.306048,-12.5556 5.009689,-12.5556 2.703644,0 4.884733,4.80254 4.884733,12.63306 v 0.66194 c 0,7.83756 -2.143223,12.56263 -4.884733,12.56263 -2.741508,0 -5.009689,-4.87295 -5.009689,-12.56263 z"
       id="path4283"
       style="fill:#ffffff;stroke-width:0.51637882" />
    <path
       inkscape:connector-curvature="0"
       class="cls-1"
       d="m 72.005119,186.81892 -2.343914,-5.14759 c -1.389687,2.51395 -2.858893,4.14061 -4.846864,4.14061 -2.741508,0 -4.922597,-3.52092 -5.323978,-10.12617 h 13.192559 c 0.03786,-1.18303 0.03786,-2.36605 0.03786,-2.88011 0,-11.74578 -3.02929,-20.61849 -8.739502,-20.61849 -5.168727,0 -8.981846,8.4502 -8.981846,20.17486 v 0.59151 c 0,12.26688 4.210713,19.94952 9.617997,19.94952 a 9.6785825,17.998935 0 0 0 7.387681,-6.08414 z m -8.023833,-27.63921 c 2.620335,0 4.131194,4.50677 4.369751,10.71767 H 59.44871 c 0.333222,-6.65453 2.067491,-10.71767 4.532576,-10.71767 z"
       id="path4285"
       style="fill:#ffffff;stroke-width:0.51637882" />
    <path
       inkscape:connector-curvature="0"
       class="cls-1"
       d="m 85.90956,152.159 c -2.862681,0 -4.57044,3.03503 -5.763221,6.50665 v -5.76726 h -4.490926 v 39.1667 h 4.487137 v -23.72395 c 0,-5.39405 1.632032,-8.64034 3.97594,-8.64034 2.343912,0 3.786611,3.02799 3.786611,8.49246 v 23.87183 h 4.49092 V 165.83424 C 92.380911,157.48263 89.957446,152.159 85.90956,152.159 Z"
       id="path4287"
       style="fill:#ffffff;stroke-width:0.51637882" />
    <path
       inkscape:connector-curvature="0"
       class="cls-1"
       d="m 110.48088,180.90378 v -0.0704 c 0,-6.13344 -2.46508,-8.94314 -5.72157,-11.67537 -2.46508,-2.0703 -4.13498,-3.40121 -4.13498,-5.98556 v -0.14788 c 0,-2.11255 0.99588,-3.84484 2.65063,-3.84484 1.65475,0 3.40795,1.47878 5.0059,3.47162 l 1.89331,-6.13344 a 12.045215,22.400083 0 0 0 -6.8159,-4.2251 c -3.930509,0 -6.952219,4.43636 -6.952219,11.45706 v 0.14789 c 0,6.4292 2.624119,9.08397 5.763219,11.5979 2.50295,1.99285 4.1312,3.25333 4.1312,6.06303 v 0.0704 c 0,2.43648 -1.07161,4.28848 -2.9422,4.28848 -1.87059,0 -3.892638,-1.70412 -5.801091,-4.58423 l -2.105359,5.98556 a 12.427663,23.111308 0 0 0 7.82693,5.46446 c 4.06303,0.0141 7.20213,-4.19694 7.20213,-11.87957 z"
       id="path4289"
       style="fill:#ffffff;stroke-width:0.51637882" />
    <path
       inkscape:connector-curvature="0"
       class="cls-1"
       d="m 124.38154,190.95247 v -6.87283 a 5.0816344,9.4501451 0 0 1 -2.42343,1.11261 c -1.43134,0 -2.27197,-1.26048 -2.27197,-4.28847 v -20.8368 h 4.72948 v -7.16859 h -4.72191 v -10.56275 h -4.49092 v 10.56275 h -2.30226 l 0.7346,7.16859 h 1.56766 v 22.53388 c 0,7.61222 2.34391,10.05574 5.44515,10.05574 a 7.6338114,14.196343 0 0 0 3.7336,-1.70413 z"
       id="path4291"
       style="fill:#ffffff;stroke-width:0.51637882" />
    <path
       inkscape:connector-curvature="0"
       class="cls-1"
       d="m 141.57276,156.44747 c -1.35182,-2.58435 -3.45718,-3.99272 -6.19868,-3.99272 a 14.983627,27.864549 0 0 0 -6.95223,3.10545 l 1.27231,6.64749 a 12.022495,22.357832 0 0 1 5.09678,-2.36604 c 2.85889,0 4.54393,2.73222 4.54393,7.9784 v 1.62666 a 14.30961,26.611102 0 0 0 -4.84686,-1.55625 c -4.44927,0 -7.47098,4.1406 -7.47098,12.56263 v 0.37323 c 0,7.60517 2.94219,11.97112 6.43723,11.97112 2.74151,0 4.60831,-2.21114 5.84275,-5.53488 v 4.80253 h 4.40761 v -24.31547 c -0.0151,-4.87295 -0.73081,-8.7178 -2.13186,-11.30215 z m -2.22274,22.46346 c 0,4.42932 -1.98797,7.68265 -4.57044,7.61223 -1.94632,-0.0774 -3.40795,-2.29564 -3.40795,-6.2109 v -0.14788 c 0,-4.13355 1.51464,-6.57707 4.08954,-6.57707 a 10.102683,18.78762 0 0 1 3.89643,1.40836 z"
       id="path4293"
       style="fill:#ffffff;stroke-width:0.51637882" />
    <path
       inkscape:connector-curvature="0"
       class="cls-1"
       d="m 162.77779,186.96679 -2.42343,-5.54192 c -1.23443,2.28859 -2.46509,3.98568 -4.29401,3.98568 -3.05959,0 -5.20282,-5.09829 -5.20282,-12.71051 v -0.36618 c 0,-7.38689 2.14323,-12.63306 5.08543,-12.63306 1.8933,0 3.1391,1.77454 4.25237,3.91526 l 2.50295,-6.13343 c -1.74942,-3.25334 -3.73739,-5.32363 -6.75532,-5.32363 -5.52467,0 -9.61421,8.4502 -9.61421,20.10444 v 0.70418 c 0,11.67537 3.97215,19.87911 9.46653,19.87911 3.1959,0.0281 5.31262,-2.40831 6.98251,-5.87994 z"
       id="path4295"
       style="fill:#ffffff;stroke-width:0.51637882" />
    <polygon
       transform="matrix(0.37866128,0,0,0.70418369,11.786612,43.742876)"
       class="cls-1"
       points="435.03,181.76 426.71,190.71 437.87,210.63 451.62,210.63 "
       id="polygon4297"
       style="fill:#ffffff" />
    <polygon
       transform="matrix(0.37866128,0,0,0.70418369,11.786612,43.742876)"
       class="cls-1"
       points="437.03,155.02 418.04,179.47 418.04,134.87 406.19,134.87 406.19,210.63 418.04,210.63 418.04,194.57 451.1,155.02 "
       id="polygon4299"
       style="fill:#ffffff" />
  </g>
</svg>
